<?xml version="1.0" encoding="UTF-8"?><svg id="Layer_1" xmlns="http://www.w3.org/2000/svg" viewBox="0 0 629.11 239.71"><defs><style>.cls-1{fill:#28a8e0;}.cls-1,.cls-2,.cls-3,.cls-4,.cls-5,.cls-6,.cls-7,.cls-8,.cls-9,.cls-10{stroke-width:0px;}.cls-2{fill:#5b5c5e;}.cls-3{fill:#99857b;}.cls-4{fill:#5a5b5d;}.cls-5{fill:#b35a92;}.cls-6{fill:#d05d56;}.cls-7{fill:#cf5e56;}.cls-8{fill:#b55b92;}.cls-9{fill:#8cc640;}.cls-10{fill:#8bc542;}</style></defs><rect class="cls-1" x="503.79" y="53.54" width="11.33" height="71.05"/><rect class="cls-10" x="521.29" y="44.27" width="11.33" height="80.31"/><rect class="cls-3" x="538.8" y="68.99" width="20.59" height="55.6"/><rect class="cls-9" x="470.84" y="97.82" width="10.3" height="26.77"/><rect class="cls-1" x="319.48" y="95.76" width="18.53" height="28.83"/><rect class="cls-7" x="565.57" y="86.49" width="13.39" height="38.1"/><rect class="cls-8" x="488.35" y="68.99" width="8.24" height="55.6"/><rect class="cls-4" x="423.48" width="9.27" height="153.42"/><rect class="cls-8" x="359.64" y="68.99" width="13.39" height="55.6"/><rect class="cls-3" x="379.2" y="92.67" width="18.53" height="31.92"/><rect class="cls-10" x="403.92" y="24.71" width="13.39" height="99.88"/><rect class="cls-6" x="439.95" y="55.6" width="23.68" height="68.99"/><rect class="cls-7" x="344.2" y="46.33" width="9.27" height="78.25"/><path class="cls-5" d="M436.05,170.13c0,4.16-3.37,7.53-7.53,7.53s-7.53-3.37-7.53-7.53,3.37-7.52,7.53-7.52,7.53,3.37,7.53,7.52Z"/><path class="cls-4" d="M7.21,124.29c.1-6.39-.16-10.09-.77-11.08-.99-1.58-3.14-2.94-6.44-4.08v-.28c0-.37.14-.9.41-1.57,3.73-.71,7.7-1.8,11.91-3.25.24-.04.61-.06,1.12-.06.17.59.26.98.26,1.16v16.45l-.05,5.24.05,5.85-.1,4.75c0,.18.03.81.1,1.88l4.19-1.71c.44-.15,1.91-.62,4.4-1.43,3.17-.55,5.01-.83,5.52-.83,3.41,0,6.47.59,9.2,1.77,1.67.74,3.33,1.96,4.96,3.67,1.63,1.71,2.84,3.53,3.63,5.44,1.36,3.5,2.04,6.51,2.04,9.05,0,4.01-.24,6.79-.71,8.33-1.16,3.68-2.57,6.59-4.24,8.72-1.67,2.13-4.01,3.96-7,5.46-3,1.51-6.18,2.26-9.56,2.26-3.1,0-6.03-.62-8.79-1.87-2.76-1.25-4.31-1.88-4.65-1.88-1.06,0-2.4,1.51-4.04,4.53l-1.48-.06c-.14-2.46-.2-5.49-.2-9.1l.26-47.36ZM24.33,177c5.18,0,9.13-1.57,11.83-4.72,2.71-3.15,4.06-7.83,4.06-14.05,0-5.7-1.53-10.32-4.6-13.85-3.07-3.53-6.85-5.3-11.35-5.3-3.27,0-6.01.57-8.23,1.71-1.33.7-2.07,1.34-2.22,1.93-.16.59-.23,4.53-.23,11.81,0,8.65.17,13.71.51,15.18.58,2.28,1.63,3.92,3.17,4.91,2.42,1.58,4.77,2.37,7.05,2.37Z"/><path class="cls-4" d="M52.32,156.24c0-2.5.48-5.18,1.46-8.03.97-2.85,2.45-5.41,4.42-7.68,1.98-2.26,4.07-3.95,6.29-5.05,3.1-1.55,6.88-2.32,11.35-2.32,6.37,0,11.7,2.35,15.97,7.06,4.27,4.71,6.42,10.38,6.42,17,0,5.89-2.24,11.14-6.72,15.76-4.48,4.62-10.15,6.93-17,6.93-4.22,0-8.21-1.2-11.96-3.59-2.8-1.8-5.2-4.47-7.21-8-2.01-3.53-3.01-7.56-3.01-12.09ZM74.93,177.77c2.59,0,5.1-.76,7.5-2.26,2.41-1.51,4.32-3.93,5.76-7.26,1.43-3.33,2.15-7.19,2.15-11.57,0-2.87-.55-6.2-1.66-9.99-1.11-3.79-2.82-6.63-5.12-8.53-2.3-1.9-5.01-2.84-8.12-2.84-2.25,0-4.55.57-6.88,1.71-2.34,1.14-4.32,3.33-5.94,6.57-1.62,3.24-2.43,7.84-2.43,13.8,0,6.7,1.41,11.77,4.22,15.21,2.82,3.44,6.32,5.16,10.52,5.16Z"/><path class="cls-4" d="M102.59,156.24c0-2.5.48-5.18,1.46-8.03.97-2.85,2.44-5.41,4.42-7.68,1.98-2.26,4.07-3.95,6.29-5.05,3.1-1.55,6.88-2.32,11.35-2.32,6.37,0,11.7,2.35,15.97,7.06,4.27,4.71,6.42,10.38,6.42,17,0,5.89-2.24,11.14-6.72,15.76-4.48,4.62-10.15,6.93-16.99,6.93-4.23,0-8.21-1.2-11.96-3.59-2.8-1.8-5.2-4.47-7.21-8-2.01-3.53-3.01-7.56-3.01-12.09ZM125.2,177.77c2.59,0,5.09-.76,7.5-2.26,2.4-1.51,4.32-3.93,5.76-7.26,1.43-3.33,2.15-7.19,2.15-11.57,0-2.87-.55-6.2-1.66-9.99-1.11-3.79-2.82-6.63-5.12-8.53-2.3-1.9-5.01-2.84-8.12-2.84-2.25,0-4.55.57-6.89,1.71-2.34,1.14-4.32,3.33-5.94,6.57-1.62,3.24-2.43,7.84-2.43,13.8,0,6.7,1.41,11.77,4.22,15.21,2.82,3.44,6.32,5.16,10.52,5.16Z"/><path class="cls-4" d="M151.88,178.38l-.1-1.6c.27-.22.53-.36.77-.42.24-.05,1.1-.14,2.58-.25,1.48-.11,2.41-.47,2.79-1.07.37-.61.56-3.12.56-7.53l.1-21.79-.1-3.86c0-.33.03-1.56.1-3.7.07-.99.1-2.19.1-3.58l-.21-9.6.05-8.38c0-2.02-.26-3.32-.79-3.89-.53-.57-2.39-1.1-5.59-1.57v-.66c0-.22.02-.53.05-.94,1.94-.44,3.66-.99,5.16-1.66.78-.37,2.78-1.51,5.98-3.42h1.58c-.04.85-.05,1.36-.05,1.55v4.8l-.05,2.38.15,4.36-.05,6.57.05,10.93-.15,13.58v4.2c0,.52.02,1.23.05,2.15l.56.06c1.16,0,2.33-.46,3.53-1.38,5.35-4.12,8.7-6.93,10.07-8.42,1.36-1.49,2.04-2.57,2.04-3.23,0-.4-.22-.92-.66-1.55-1.02-.59-2.16-.99-3.42-1.21-.38-.07-.79-.17-1.23-.28-.61-.18-1.13-.31-1.53-.39l-.1-.55c0-.26.09-.62.26-1.1,5.38-.22,10.07-.33,14.06-.33,2.25,0,4.65.05,7.21.17v.72c0,.26-.08.59-.26.99-.51.11-1.31.28-2.4.5-2.11.37-3.72.88-4.8,1.54-2.63,1.5-5.33,3.62-8.13,6.35-1.67,1.62-3.12,2.99-4.34,4.09l-1.84,1.72c.14.26.36.57.66.94.13.15.41.48.82,1,.41.52,1.14,1.38,2.2,2.59,3.68,4.19,6.41,7.43,8.18,9.71.58.74,1.22,1.55,1.94,2.43,2.66,3.2,4.21,4.99,4.65,5.35.95.66,2.37,1.18,4.24,1.55.88.18,1.65.35,2.3.5.14.44.21.79.21,1.05l-.05.55c-2.42-.22-4.16-.33-5.22-.33h-.92l-14.21.44c-.55.07-.92.11-1.12.11-.34,0-.7-.07-1.07-.22-.1-.29-.16-.55-.16-.77v-.39c.2-.33.39-.53.56-.61,3.36-.29,5.31-.53,5.86-.72.31-.07.59-.27.87-.61,0-.63-.49-1.64-1.48-3.04-.98-1.4-3.45-4.47-7.4-9.22-2.52-3.02-4.14-4.77-4.87-5.27-.73-.49-1.75-.74-3.04-.74h-1.94c-.14,1.32-.21,4.35-.21,9.08,0,4.4.34,7.23,1.02,8.48.38.7,1.26,1.14,2.66,1.32,1.4.19,2.3.46,2.71.83.27.22.44.74.51,1.55-2.04-.04-3.76-.05-5.16-.05-2.25,0-4.7.05-7.36.16-1.6.07-2.86.11-3.78.11-.68,0-1.81-.02-3.37-.05Z"/><path class="cls-4" d="M202.41,164.41c1.26,3.5,2.21,5.76,2.86,6.79,1.29,2.1,2.84,3.73,4.65,4.88,1.8,1.16,3.77,1.74,5.88,1.74,1.94,0,3.87-.9,5.78-2.7,1.36-1.36,2.05-2.95,2.05-4.75,0-2.39-.8-4.6-2.4-6.63-1.6-1.99-4.64-3.89-9.12-5.71-4.48-1.82-7.49-3.76-9.02-5.83-1.53-2.06-2.3-4.42-2.3-7.06,0-2.5.63-4.71,1.89-6.62,1.26-1.91,3-3.36,5.21-4.33,2.21-.97,4.26-1.46,6.13-1.46,2.42,0,4.59.2,6.52.61,1.93.41,3.59,1.03,4.98,1.88.27,1.87.49,4.64.67,8.28l.1,1.77c-.44.04-.82.06-1.12.06h-.72c-1.02-3.05-2.58-5.47-4.68-7.26-2.1-1.79-4.16-2.68-6.21-2.68s-3.7.67-4.96,2.02c-1.26,1.34-1.89,3.1-1.89,5.27,0,1.66.51,3.13,1.53,4.42,1.02,1.29,3.42,2.76,7.18,4.4,3.76,1.65,6.51,3.18,8.23,4.6,1.72,1.42,2.99,3.14,3.81,5.17.82,2.03,1.23,3.96,1.23,5.8,0,2.54-.78,4.92-2.33,7.13-1.55,2.21-3.49,3.77-5.83,4.67-2.33.9-4.42,1.35-6.26,1.35-4.33,0-8.31-.86-11.96-2.6-.34-.29-.53-.84-.56-1.65,0-.33-.03-.86-.1-1.6-.54-4.97-.82-7.91-.82-8.83,0-.44.08-.74.26-.88.17-.15.61-.22,1.33-.22Z"/><path class="cls-4" d="M244.71,123.9l1.58.05.2,5.24-.1,6.79c.65.04,1.06.06,1.23.06.88,0,2.57-.07,5.06-.22,1.6-.11,3.14-.16,4.6-.16.68,0,1.7.02,3.07.05.07.74.1,1.33.1,1.77,0,.48-.1,1.23-.31,2.26h-.87l-7.92.28-3.94.11-.92.11c-.27.92-.41,1.99-.41,3.2l.15,8.28-.1,14.57c0,3.83.46,6.37,1.38,7.62.89,1.29,2.22,1.93,3.99,1.93.89,0,2.56-.29,5.01-.88.75-.18,1.76-.79,3.02-1.82h.46c.31,0,.55.1.74.31.19.2.28.47.28.8l-.05.39c-1.47,1.73-3.14,2.99-5.03,3.78-1.89.79-4.41,1.19-7.54,1.19-2.22,0-4.05-.55-5.49-1.65-1.45-1.1-2.38-2.41-2.79-3.92-.41-1.51-.61-4.8-.61-9.88l.21-12.42-.05-5.96v-2.21c0-1.03-.03-2.06-.1-3.09l-.87-.05-4.19.17-.41.05c-.37,0-.66-.09-.84-.27-.19-.19-.28-.41-.28-.66,0-.44.13-.8.39-1.08.26-.28,1.03-.71,2.32-1.3.88-.4,1.92-1.17,3.09-2.29,1.18-1.12,2.17-2.36,2.99-3.72.41-.74.99-2.13,1.74-4.2.54-1.51.95-2.58,1.23-3.2Z"/><path class="cls-4" d="M261.2,156.24c0-2.5.48-5.18,1.46-8.03.97-2.85,2.45-5.41,4.42-7.68,1.98-2.26,4.07-3.95,6.29-5.05,3.1-1.55,6.88-2.32,11.35-2.32,6.37,0,11.7,2.35,15.97,7.06,4.28,4.71,6.42,10.38,6.42,17,0,5.89-2.24,11.14-6.72,15.76-4.48,4.62-10.15,6.93-17,6.93-4.22,0-8.21-1.2-11.96-3.59-2.8-1.8-5.2-4.47-7.21-8-2.01-3.53-3.01-7.56-3.01-12.09ZM283.81,177.77c2.59,0,5.09-.76,7.5-2.26,2.4-1.51,4.32-3.93,5.76-7.26,1.44-3.33,2.15-7.19,2.15-11.57,0-2.87-.56-6.2-1.66-9.99-1.11-3.79-2.82-6.63-5.12-8.53-2.31-1.9-5.01-2.84-8.12-2.84-2.25,0-4.55.57-6.88,1.71-2.34,1.14-4.32,3.33-5.94,6.57-1.62,3.24-2.43,7.84-2.43,13.8,0,6.7,1.41,11.77,4.22,15.21,2.82,3.44,6.32,5.16,10.52,5.16Z"/><path class="cls-4" d="M309.83,178.6l-.21-.72c0-.26.16-.64.46-1.16l3.01-.66,4.24-.82c.34-.18.58-.44.72-.77.21-.48.31-1.89.31-4.24,0-12.49-.07-19.7-.21-21.63-.13-1.93-.44-3.15-.92-3.66-.48-.51-1.71-.92-3.68-1.21-1.16-.18-2.08-.42-2.76-.71l.2-1.68c3.58-1.59,5.98-2.95,7.21-4.1,1.7-1.66,3.15-3.84,4.34-6.53l1.74.06c.2,1.84.31,5.93.31,12.26l-.05.94c0,.22.03.57.1,1.05,1.29-2.54,2.91-4.88,4.85-7.01l1.18-1.27c.48-.59.94-1.05,1.38-1.38,2.39-1.55,4.16-2.32,5.32-2.32,1.5,0,2.73.54,3.68,1.63.95,1.09,1.43,2.42,1.43,4,0,1.25-.34,2.23-1.02,2.92-.92.92-1.97,1.38-3.17,1.38-.54,0-1.62-.31-3.22-.94-1.6-.62-2.66-.94-3.17-.94-.95,0-1.62.17-1.99.5-.95.81-2.11,2.47-3.48,4.97-1.06,1.88-1.58,3.61-1.58,5.19l.26,9.13.1,10.96c.1,1.25.24,2.07.41,2.43.14.26.48.57,1.02.94,3.68.33,5.86.57,6.54.72.48.04.83.08,1.07.11,1.47.04,2.49.26,3.07.66.31.18.46.46.46.83,0,.22-.13.51-.41.88l-5.68-.11-2.15-.05-3.12.05h-5.21l-2.81.17-8.59.17Z"/><path class="cls-4" d="M379.98,149.29l-20.5.16h-3.88c-1.57,0-3.17.07-4.8.23-.31,1.1-.46,1.86-.46,2.26l.05.55v.55l-.05,2.7c0,2.25.65,5,1.97,8.25,1.31,3.26,3.19,5.74,5.62,7.45,2.44,1.71,5.48,2.62,9.13,2.73,1.94-.11,3.49-.37,4.65-.77,1.16-.4,2.79-1.34,4.91-2.81l3.68-3.26.3,2.21c0,.26-.02.53-.05.83-1.54,2.09-3.48,3.94-5.83,5.52-2.35,1.58-4.74,2.74-7.16,3.48-1.16.33-3.07.5-5.73.5-2.42,0-4.8-.53-7.16-1.6-3.48-1.62-6.21-4.22-8.2-7.81-1.99-3.59-2.99-7.94-2.99-13.06,0-1.62.28-3.7.84-6.24.56-2.54,1.58-5.24,3.04-8.11.99-1.95,2.2-3.55,3.63-4.8,2.04-1.77,3.83-3,5.37-3.7,2.21-1,4.79-1.49,7.72-1.49,3.17,0,5.76.63,7.77,1.88,2.72,1.66,4.76,3.79,6.11,6.4,1.34,2.62,2.02,5.01,2.02,7.18v.77ZM351.46,147.3h2.4c1.74,0,6.92-.3,15.54-.88,1.36-.07,2.2-.22,2.5-.44.61-.7.92-1.33.92-1.88,0-1.14-.34-2.44-1.02-3.89-.68-1.45-1.73-2.58-3.15-3.37-1.41-.79-3.06-1.19-4.93-1.19-3.95,0-7.12,1.6-9.51,4.8-1.84,2.43-2.76,4.71-2.76,6.85Z"/><path class="cls-4" d="M387.32,164.41c1.26,3.5,2.21,5.76,2.86,6.79,1.29,2.1,2.84,3.73,4.65,4.88,1.8,1.16,3.76,1.74,5.88,1.74,1.94,0,3.87-.9,5.78-2.7,1.36-1.36,2.04-2.95,2.04-4.75,0-2.39-.8-4.6-2.4-6.63-1.6-1.99-4.64-3.89-9.12-5.71-4.48-1.82-7.49-3.76-9.02-5.83-1.53-2.06-2.3-4.42-2.3-7.06,0-2.5.63-4.71,1.89-6.62,1.26-1.91,3-3.36,5.21-4.33,2.21-.97,4.26-1.46,6.13-1.46,2.42,0,4.59.2,6.52.61,1.92.41,3.59,1.03,4.98,1.88.27,1.87.49,4.64.66,8.28l.1,1.77c-.44.04-.82.06-1.13.06h-.71c-1.02-3.05-2.58-5.47-4.68-7.26-2.1-1.79-4.17-2.68-6.21-2.68s-3.7.67-4.96,2.02c-1.26,1.34-1.89,3.1-1.89,5.27,0,1.66.51,3.13,1.53,4.42,1.02,1.29,3.41,2.76,7.18,4.4,3.77,1.65,6.51,3.18,8.23,4.6,1.72,1.42,2.99,3.14,3.81,5.17.82,2.03,1.23,3.96,1.23,5.8,0,2.54-.78,4.92-2.32,7.13-1.55,2.21-3.49,3.77-5.83,4.67-2.33.9-4.42,1.35-6.26,1.35-4.33,0-8.31-.86-11.96-2.6-.34-.29-.53-.84-.56-1.65,0-.33-.03-.86-.1-1.6-.54-4.97-.82-7.91-.82-8.83,0-.44.08-.74.26-.88.17-.15.61-.22,1.33-.22Z"/><path class="cls-4" d="M478.87,168.33l.05,3.59c-2.66,3.05-5.28,5.19-7.87,6.4-2.59,1.21-5.64,1.82-9.15,1.82-3.82,0-7.26-1.08-10.32-3.23-3.06-2.15-5.43-5.2-7.08-9.14-1.65-3.94-2.48-7.8-2.48-11.59,0-4.16,1-8.09,2.99-11.79,1.99-3.7,4.63-6.46,7.92-8.28,3.29-1.82,7.42-2.73,12.39-2.73s8.4.88,10.89,2.65c1.4,1.03,2.1,2.35,2.1,3.97,0,1.18-.36,2.15-1.07,2.93-.72.77-1.64,1.16-2.76,1.16-1.71,0-3.58-1.14-5.62-3.42-1.26-1.4-2.4-2.36-3.42-2.9-1.02-.53-2.16-.8-3.42-.8-3.04,0-5.55,1.34-7.57,4.03-2.8,3.83-4.19,8.63-4.19,14.41s1.43,10.71,4.29,14.24c2.86,3.53,6.2,5.3,10.02,5.3,2.66,0,5.02-.47,7.08-1.41,2.06-.94,4.47-2.68,7.23-5.22Z"/><path class="cls-4" d="M482.22,156.24c0-2.5.48-5.18,1.46-8.03.97-2.85,2.44-5.41,4.42-7.68,1.98-2.26,4.07-3.95,6.29-5.05,3.1-1.55,6.88-2.32,11.35-2.32,6.37,0,11.7,2.35,15.97,7.06,4.28,4.71,6.42,10.38,6.42,17,0,5.89-2.24,11.14-6.72,15.76-4.48,4.62-10.14,6.93-16.99,6.93-4.23,0-8.21-1.2-11.96-3.59-2.8-1.8-5.2-4.47-7.21-8-2.01-3.53-3.02-7.56-3.02-12.09ZM504.84,177.77c2.59,0,5.09-.76,7.5-2.26,2.41-1.51,4.33-3.93,5.76-7.26,1.43-3.33,2.15-7.19,2.15-11.57,0-2.87-.56-6.2-1.67-9.99-1.11-3.79-2.81-6.63-5.12-8.53-2.31-1.9-5.01-2.84-8.11-2.84-2.25,0-4.55.57-6.89,1.71-2.34,1.14-4.32,3.33-5.94,6.57-1.62,3.24-2.43,7.84-2.43,13.8,0,6.7,1.41,11.77,4.22,15.21,2.82,3.44,6.32,5.16,10.52,5.16Z"/><path class="cls-4" d="M530.8,176.56c.54-.41,1.29-.68,2.25-.83,1.36-.19,2.42-.48,3.17-.88.62-.55,1.02-1.34,1.23-2.38.24-1.32.36-5.98.36-13.96s-.22-12.9-.66-15.18c-.75-.52-1.72-.92-2.91-1.21-.38-.07-1.16-.28-2.35-.61v-1.85c2.02-.63,3.65-1.44,4.9-2.43,1.25-1,2.99-2.99,5.21-5.98h.31c.2,0,.53-.02.97-.06.27.04.5.13.67.28l-.05,6.29c0,1.29.03,2.67.1,4.14,3.64-3.57,6.9-6.07,9.79-7.51,1.97-.96,4.2-1.43,6.68-1.43,2.96,0,5.31.61,7.04,1.82,1.73,1.21,3.38,3.4,4.95,6.57,3.03-3.24,5.78-5.5,8.25-6.79,2.47-1.29,4.97-1.93,7.49-1.93,3.81,0,6.95,1.35,9.4,4.04,2.42,2.73,3.66,6.72,3.73,11.99v4.59l.05,5.03-.05,12.93c-.03,1.51.27,2.65.92,3.43.27.11,1.31.44,3.12,1,1.12.33,1.79.59,1.99.78.2.18.31.44.31.77,0,.41-.1.88-.31,1.44h-.35l-5.15-.33c-.61-.04-1.58-.05-2.9-.05-1.63,0-3.91.08-6.83.22h-2.6c-.37,0-1.1.02-2.19.05-.03-.33-.05-.62-.05-.88,0-.29.12-.66.36-1.1.92-.44,2.18-.8,3.78-1.08,1.6-.28,2.6-.77,2.99-1.49.39-.72.59-3.58.59-8.6,0-10.87-.12-17.17-.36-18.91-.41-2.76-1.5-4.93-3.25-6.5-1.76-1.57-3.97-2.35-6.63-2.35-2.05,0-4.05.58-6,1.74-1.95,1.16-3.86,2.9-5.74,5.22l-.05,1.32v8.45l-.21,6.57c0,6.7.06,10.51.18,11.43.12.92.41,1.59.87,2.02.46.42,1.79.8,4.01,1.13.99.15,1.76.29,2.3.44.41.37.61.85.61,1.44,0,.48-.15.81-.46.99h-.87l-2.56-.06h-14.87l-4.09.06c-.07-.55-.1-.96-.1-1.21l.05-.66c.75-.44,2.15-.86,4.19-1.27,1.06-.18,2.15-.5,3.27-.94.2-.18.35-.42.46-.72.17-.51.29-1.99.36-4.42l.26-6.41-.1-7.23.05-4.03c0-4.53-.85-7.83-2.55-9.91-1.7-2.08-3.84-3.12-6.43-3.12-2.41,0-4.84.64-7.26,1.93-2.43,1.29-4.45,3.02-6.04,5.19-.04,1.03-.05,1.97-.05,2.82l.2,18.54c.04,4.05.25,6.36.64,6.93.39.57,1.27.97,2.63,1.19,2.18.33,3.59.74,4.24,1.21.31.22.46.55.46.99,0,.29-.02.65-.05,1.05-3.9-.29-6.51-.44-7.84-.44s-2.59.02-3.69.06l-2.56.16h-1.59l-5.74.22c-.07-.26-.1-.47-.1-.64s.07-.52.21-1.07Z"/><path class="cls-2" d="M629.11,139.03c0,5.14-3.61,9.2-9.56,9.2-6.02.04-9.56-4.06-9.56-9.2s4.06-9.24,9.56-9.24,9.56,3.77,9.56,9.24ZM627.39,139.03c0-5.86-4.66-7.95-7.83-7.95-4.34,0-7.83,3.05-7.83,7.95,0,6.02,4.58,7.87,7.83,7.91,5.7,0,7.83-4.34,7.83-7.91ZM616.14,134.93c-.04-.48-.24-.72-.88-.72h-.24c-.08,0-.12-.04-.12-.12v-.48c0-.08.04-.12.12-.12.12,0,1.69.08,1.97.08s2.45-.08,2.73-.08c1.49,0,2.57.4,3.13.92.6.48.8,1.16.8,1.73,0,1.97-1.61,2.81-2.77,3.01v.08c.32.08.52.32.64.48.2.24,1.13,1.53,1.33,1.93.24.44,1,1.4,1.37,1.61.36.24.76.28,1.2.28.12,0,.16.04.16.12v.44c0,.08-.04.12-.16.12s-.76-.04-1.24-.04-1.08.04-1.65.04c-.16-.12-.56-.64-.68-.84-.12-.16-.96-1.41-1.13-1.73-.16-.32-.76-1.25-1.04-1.53-.2-.28-.6-.6-1.04-.6h-.64v.76c0,.88,0,2.41.04,2.65.04.32.12.6.52.6h.64c.12,0,.12.04.12.12v.44c0,.08,0,.12-.12.12-.2,0-1.53-.04-2.17-.04s-1.85.04-2.01.04-.2-.04-.2-.16v-.36c0-.12.04-.16.12-.16h.36c.52,0,.84-.12.84-.84v-7.75ZM617.99,138.79c.16.04.52.04,1.04.04,2.25,0,2.65-1.85,2.65-2.41,0-.6-.36-1.29-.8-1.57-.68-.44-1.16-.6-2.09-.6-.2,0-.56,0-.8.04v4.5Z"/><path class="cls-4" d="M16.05,228.4c-1.05,0-2.1-.24-3.13-.7-1.51-.71-2.71-1.86-3.57-3.42-.85-1.54-1.28-3.42-1.28-5.6,0-.7.12-1.6.35-2.67.24-1.08.67-2.24,1.28-3.45.43-.85.97-1.57,1.59-2.12.88-.76,1.63-1.29,2.31-1.6.97-.44,2.1-.66,3.36-.66,1.38,0,2.54.29,3.43.85,1.18.72,2.08,1.68,2.67,2.83.58,1.14.88,2.21.88,3.18v.83l-8.85.07h-1.58c-.51,0-1.03.02-1.55.06-.07.3-.08.41-.08.45l.02.45-.02,1.12c0,.84.26,1.91.76,3.18.49,1.23,1.2,2.18,2.11,2.83.9.64,2.06.98,3.43,1.03.7-.04,1.29-.14,1.7-.29.42-.15,1.05-.51,1.87-1.09l2.17-1.94.26,1.86c0,.19,0,.33-.02.47l-.02.13-.08.11c-.66.9-1.5,1.71-2.5,2.39-.99.67-2.02,1.18-3.05,1.49-.53.15-1.34.23-2.48.23ZM12.39,214.02h.41c.69,0,2.81-.12,6.29-.36.45-.02.65-.06.73-.09.17-.22.18-.33.18-.35,0-.39-.12-.85-.37-1.38-.23-.5-.58-.88-1.07-1.15-.49-.28-1.08-.42-1.75-.42-1.45,0-2.58.58-3.45,1.76-.53.7-.85,1.37-.97,1.98Z"/><path class="cls-4" d="M57.04,227.88h-.51l-2.13-.14c-.53-.03-1.78-.04-3.9.07h-1.08c-.15,0-.44,0-.87.02l-.48.02-.05-.48c-.02-.15-.02-.29-.02-.42,0-.21.07-.44.21-.7l.08-.15.15-.07c.42-.2.97-.36,1.67-.48.7-.12.83-.31.85-.35.04-.09.18-.61.18-3.28,0-4.41-.05-6.99-.14-7.68-.15-1.01-.53-1.78-1.16-2.35-.62-.56-1.39-.83-2.35-.83-.74,0-1.47.22-2.17.64-.7.42-1.4,1.05-2.09,1.89v.37s-.01,3.44-.01,3.44l-.08,2.71c0,3.37.04,4.36.07,4.6.03.25.1.43.19.52.02.01.24.16,1.36.33.43.06.76.13.99.19l.12.03.09.08c.27.25.42.58.42.97,0,.51-.27.75-.44.85l-.12.07h-9.71s-.06-.45-.06-.45c-.03-.25-.05-.44-.05-.56l.04-.58.23-.14c.36-.22.95-.4,1.87-.58.36-.06.73-.16,1.11-.31.05-.14.11-.49.14-1.69l.1-2.63-.04-2.94.02-1.66c0-1.72-.31-2.98-.92-3.73-.59-.73-1.32-1.09-2.21-1.09s-1.81.25-2.71.73c-.87.46-1.6,1.09-2.19,1.85-.01.35-.02.68-.02.98l.08,7.6c.02,2.12.16,2.52.18,2.58h0s.13.15.72.25c.99.15,1.61.34,1.95.59.25.18.4.48.4.82,0,.13,0,.29-.02.47l-.04.51-.51-.04c-1.6-.12-2.63-.18-3.15-.18-.55,0-1.04,0-1.48.02l-1.71.07-2.73.11-.11-.4c-.04-.15-.06-.28-.06-.39,0-.08.01-.21.1-.56l.04-.18.15-.11c.29-.22.67-.36,1.14-.44.46-.06.82-.15,1.06-.28.14-.15.24-.37.3-.65.06-.34.14-1.61.14-5.62,0-2.93-.08-4.91-.22-5.91-.23-.13-.51-.23-.84-.31-.13-.03-.47-.11-.97-.25l-.38-.1v-1.53l.36-.11c.76-.24,1.37-.54,1.83-.91.47-.38,1.15-1.17,2.03-2.36l.15-.21h.39c.07,0,.19,0,.35-.02h.06s.06,0,.06,0c.21.03.39.11.54.23l.18.16-.02,2.82c0,.17,0,.35,0,.53,1.19-1.08,2.29-1.88,3.28-2.37.87-.43,1.86-.64,2.95-.64,1.31,0,2.37.28,3.16.84.66.46,1.26,1.2,1.84,2.24,1.08-1.09,2.08-1.88,2.99-2.36,1.08-.57,2.18-.85,3.29-.85,1.7,0,3.11.61,4.21,1.82,1.07,1.21,1.62,2.98,1.65,5.25v9.25c0,.43.05.75.18.97.19.06.56.18,1.1.35.66.2.88.31,1.01.43.13.12.29.34.29.69,0,.23-.05.48-.15.77l-.12.34Z"/><path class="cls-4" d="M65.75,239.71l-1.9-.05-3.11.02-3.19-.05-.04-.46c-.02-.19-.02-.35-.02-.51,0-.13.02-.3.05-.49l.06-.34,2.36-.51c.21-.12.39-.26.53-.41.04-.19.06-.38.06-.57,0-2.31-.06-6.77-.17-13.26l-.06-8.28c-.03-1.63-.14-2.15-.2-2.32-.03-.08-.08-.15-.14-.19-.17-.14-.62-.39-1.86-.63l-.5-.09.26-1.46.24-.11c1.46-.68,2.43-1.2,2.91-1.57.46-.35.9-.85,1.33-1.5l.11-.16.57-.14c.18,0,.39.06.65.19l.29.14v.32c-.02.95-.03,1.57-.03,1.87v1.46c.83-.57,1.67-1.02,2.53-1.34,1.16-.43,2.38-.65,3.63-.65,2.28,0,4.22.88,5.79,2.63,1.55,1.73,2.34,3.97,2.34,6.67,0,1.99-.44,3.81-1.3,5.4-.87,1.61-2.09,2.83-3.63,3.63-1.52.79-3.07,1.19-4.62,1.19-1.32,0-2.83-.39-4.5-1.15-.02.89-.03,1.7-.03,2.43,0,6.23.22,7.42.31,7.64.02.05.19.18.74.23,1.23.1,2.02.29,2.47.61.32.21.53.6.63,1.15l.1.59-2.66.06ZM63.97,213.46c-.01.12-.02.24-.02.35,0,6.65.08,8.55.14,8.97.17,1.05.5,1.79.98,2.19.81.69,2,1.03,3.54,1.03s2.91-.59,4.01-1.79c1.1-1.2,1.65-2.79,1.65-4.73,0-2.36-.59-4.25-1.77-5.61-1.17-1.36-2.67-2.02-4.6-2.02-.8,0-1.55.14-2.21.42-.62.26-1.2.65-1.73,1.17Z"/><path class="cls-4" d="M80.01,227.88c-.32,0-.58-.1-.78-.29-.12-.11-.28-.33-.28-.69,0-.4.18-.63.34-.74.13-.11.34-.2,1.72-.45.98-.18,1.26-.28,1.33-.32-.01-.01.04-.13.07-.41.05-.52.08-2.05.08-4.54l-.02-5.2.06-5.39-.02-5.38.06-2.66c0-.56-.1-.78-.14-.85-.04-.07-.21-.25-.76-.5-.76-.34-1.28-.58-1.57-.74l-.27-.15v-1.17l.34-.12c.39-.14.83-.28,1.3-.44.68-.24,1.71-.61,3.07-1.1l.18-.03h1.5v1.76c0,12.34-.04,19.8-.1,22.18-.04,1.4-.06,2.14-.06,2.23,0,2.06.1,2.5.13,2.59h0s.22.18,1.14.3c1.29.16,1.57.29,1.74.4.23.13.39.41.39.74,0,.3-.08.53-.23.7-.16.18-.4.27-.72.27-.1,0-.83-.03-2.2-.08l-2.72-.1-3.45.18s-.07,0-.11,0Z"/><path class="cls-4" d="M99.55,228.42c-1.81,0-3.54-.52-5.14-1.55-1.2-.78-2.25-1.95-3.1-3.46-.86-1.52-1.29-3.27-1.29-5.21,0-1.08.21-2.24.62-3.46.41-1.23,1.05-2.34,1.9-3.32.84-.97,1.76-1.71,2.71-2.19,1.33-.67,2.96-1,4.85-1,2.73,0,5.05,1.03,6.88,3.07,1.82,2.02,2.74,4.48,2.74,7.31,0,2.54-.97,4.83-2.88,6.82-1.92,1.99-4.37,3-7.28,3ZM99.93,210.14c-.83,0-1.7.22-2.57.65-.84.41-1.58,1.24-2.18,2.46-.62,1.25-.94,3.08-.94,5.43,0,2.61.54,4.6,1.6,5.91,1.05,1.3,2.32,1.93,3.88,1.93.95,0,1.89-.29,2.78-.85.88-.56,1.61-1.48,2.14-2.74.55-1.3.83-2.82.83-4.54,0-1.12-.22-2.45-.66-3.95-.42-1.44-1.06-2.54-1.92-3.24-.85-.7-1.82-1.05-2.97-1.05Z"/><path class="cls-4" d="M113.4,239.23c-.77,0-1.35-.2-1.74-.6-.39-.4-.59-.93-.59-1.58s.27-1.21.81-1.7l.19-.11c.11-.03.22-.08.33-.14l.12-.05.38-.09.11.02c1.26.25,1.83.32,2.08.34.15-.1.27-.22.34-.33.66-1.06,1.23-2.27,1.71-3.58.58-1.61.7-2.28.7-2.56,0-.31-.09-.92-.52-2.06l-2.32-6.66c-.32-.86-1.25-3.62-2.86-8.42-.07-.21-.13-.33-.19-.41l-1.3-.52-.45-.1c-.57-.25-.66-.69-.66-.92l.03-.17.21-.6.33-.03c.32-.03.6-.05.82-.05l2.33-.05,1.8.07,1.4-.05h0c.8,0,1.52.06,2.16.17l.29.05.1.28c.08.21.12.39.12.54l-.06.51-.24.13c-.35.18-.86.3-1.54.37-.74.06-1.17.19-1.43.31.01.02.04.16.14.43.07.18.16.46.28.84.31,1.12.97,3.3,1.98,6.48.55,1.74,1.08,3.3,1.58,4.68.25-.65.52-1.38.8-2.2l1.74-5.36c.4-1.15.7-2.31.9-3.45.08-.43.12-.78.12-1.02,0-.06-.01-.15-.13-.29-.04-.04-.21-.19-.83-.35-1.59-.44-1.7-.52-1.8-.61-.2-.16-.31-.43-.33-.81l-.02-.25.18-.17c.13-.12.28-.21.44-.28l.19-.04h6.39c.15,0,.33.02.58.05l.18.06c.3.16.48.46.48.81,0,.29-.12.56-.34.78l-.12.11-.58.09c-.72.11-1.26.3-1.62.58-.07.05-.24.24-.42.87-.06.21-.15.5-.28.85-.07.18-.16.47-.29.88-.13.43-.31.93-.52,1.51l-.25.65v.02s-3.54,10.2-3.54,10.2l-2.57,7.61c-.18.42-.37.88-.59,1.43-.84,1.71-.96,1.84-1.04,1.93-.42.57-.81.99-1.16,1.25l-1.15.55c-.33.1-.6.14-.89.14Z"/><path class="cls-4" d="M136.74,228.4c-1.05,0-2.1-.24-3.13-.7-1.51-.71-2.71-1.86-3.57-3.42-.85-1.54-1.28-3.42-1.28-5.6,0-.7.12-1.6.35-2.67.24-1.08.67-2.24,1.28-3.45.43-.85.97-1.57,1.59-2.12.88-.76,1.63-1.29,2.31-1.6.97-.44,2.1-.66,3.36-.66,1.38,0,2.54.29,3.43.85,1.18.72,2.08,1.68,2.67,2.83.58,1.14.88,2.21.88,3.18v.83l-8.85.07h-1.58c-.51,0-1.03.02-1.55.06-.07.3-.08.41-.08.45l.02.45-.02,1.12c0,.84.26,1.91.76,3.18.49,1.23,1.2,2.18,2.11,2.83.9.64,2.06.98,3.43,1.03.7-.04,1.29-.14,1.7-.29.42-.15,1.05-.51,1.87-1.09l2.17-1.94.26,1.86c0,.19,0,.33-.02.47l-.02.13-.08.11c-.66.9-1.5,1.71-2.5,2.39-.99.67-2.02,1.18-3.05,1.49-.53.15-1.34.23-2.48.23ZM133.09,214.02h.41c.69,0,2.81-.12,6.29-.36.45-.02.65-.06.73-.09.17-.22.18-.33.18-.35,0-.39-.12-.85-.37-1.38-.23-.5-.58-.88-1.07-1.15-.49-.28-1.08-.42-1.75-.42-1.45,0-2.58.58-3.45,1.76-.53.7-.85,1.37-.97,1.98Z"/><path class="cls-4" d="M154.48,228.4c-1.05,0-2.1-.24-3.13-.7-1.51-.71-2.71-1.86-3.57-3.42-.85-1.54-1.28-3.42-1.28-5.6,0-.7.12-1.6.35-2.67.24-1.08.67-2.24,1.28-3.45.43-.85.97-1.57,1.59-2.12.88-.76,1.63-1.29,2.31-1.6.97-.44,2.1-.66,3.36-.66,1.38,0,2.54.29,3.43.85,1.18.72,2.08,1.68,2.67,2.83.58,1.14.88,2.21.88,3.18v.83l-8.85.07h-1.58c-.51,0-1.03.02-1.55.06-.07.3-.08.41-.08.45l.02.45-.02,1.12c0,.84.26,1.91.76,3.18.49,1.23,1.2,2.18,2.11,2.83.9.64,2.06.98,3.43,1.03.7-.04,1.29-.14,1.7-.29.42-.15,1.05-.51,1.87-1.09l2.17-1.94.26,1.86c0,.19,0,.33-.02.47l-.02.13-.08.11c-.66.9-1.5,1.71-2.5,2.39-.99.67-2.02,1.18-3.05,1.49-.53.15-1.34.23-2.48.23ZM150.82,214.02h.41c.69,0,2.81-.12,6.29-.36.45-.02.65-.06.73-.09.17-.22.18-.33.18-.35,0-.39-.12-.85-.37-1.38-.23-.5-.58-.88-1.07-1.15-.49-.28-1.08-.42-1.75-.42-1.45,0-2.58.58-3.45,1.76-.53.7-.85,1.37-.97,1.98Z"/><path class="cls-4" d="M184.31,228.42c-1.81,0-3.54-.52-5.14-1.55-1.2-.78-2.25-1.95-3.1-3.46-.86-1.52-1.29-3.27-1.29-5.21,0-1.08.21-2.24.62-3.46.41-1.23,1.05-2.34,1.9-3.32.84-.97,1.76-1.71,2.71-2.19,1.33-.67,2.96-1,4.85-1,2.73,0,5.05,1.03,6.88,3.07,1.82,2.02,2.74,4.48,2.74,7.31,0,2.54-.97,4.83-2.88,6.82-1.92,1.99-4.37,3-7.28,3ZM184.7,210.14c-.83,0-1.7.22-2.57.65-.84.41-1.58,1.24-2.18,2.46-.62,1.25-.94,3.08-.94,5.43,0,2.61.54,4.6,1.6,5.91,1.05,1.3,2.32,1.93,3.88,1.93.95,0,1.89-.29,2.78-.85.88-.56,1.61-1.48,2.14-2.74.55-1.3.83-2.82.83-4.54,0-1.12-.22-2.45-.66-3.95-.42-1.44-1.06-2.54-1.92-3.24-.85-.7-1.82-1.05-2.97-1.05Z"/><path class="cls-4" d="M213.94,228.87c-.16,0-.34-.04-.57-.12l-.2-.07-.09-.2c-.4-.85-1.25-3.11-2.6-6.91-.19-.51-.36-.98-.54-1.41-2.01,4.54-3.31,7.29-3.98,8.41l-.13.21-.24.04c-.48.07-.6.07-1.05,0l-.28-.04-4.04-9.19-3.59-7.63c-.29-.54-.42-.66-.43-.67-.08-.05-.34-.19-1.02-.31l-1.17-.2-.03-.41c-.02-.24-.02-.42-.02-.55,0-.09,0-.22.02-.39l.04-.47,8.45.02c.3,0,.53.09.69.25.1.12.22.31.22.62,0,.59-.3.9-.54,1.06l-.11.07h-.13c-1.25.11-1.5.27-1.53.29-.08.06-.15.14-.15.34,0,.12.01.23.03.32.01.06.1.35.58,1.52.47,1.19,1.31,3.13,2.51,5.77l2.04,4.51c1.14-2.23,2.09-4.35,2.84-6.31l-1.21-3.45c-.13-.31-.31-.82-.53-1.51-.25-.78-.37-.95-.38-.97.01.02-.18-.1-1.05-.37-1.06-.33-1.35-.49-1.5-.63l-.14-.13-.05-.35c0-.24.05-.44.17-.68l.1-.21.22-.06c.38-.1.68-.15.93-.15l3.78.02.78-.02,2.58.04c.18,0,.33,0,.45-.02h.41c.09,0,.23,0,.4.02l.5.05-.08,1.48-.22.14c-.28.18-.68.3-1.26.38-.79.09-1.4.25-1.83.46-.05.06-.05.09-.05.09,0,.25.08.61.23,1.06.05.14.2.62.44,1.42l2.22,6.36c.4,1.18.75,2.14,1.04,2.87.52-1.21,1.17-2.93,1.94-5.15.37-1.06.88-2.34,1.51-3.81.37-.86.56-1.59.56-2.19,0-.21-.07-.38-.21-.53-.06-.06-.33-.28-1.4-.54-.54-.13-.94-.25-1.22-.36l-.16-.07-.09-.15c-.12-.2-.18-.38-.18-.55,0-.27.12-.53.37-.79l.15-.16,2.21-.02h0c.08,0,.4.01.98.03.99.04,1.82.06,3.05-.01h1.16s.09.03.09.03c.18.07.31.16.4.28.11.14.16.32.16.54,0,.2-.02.42-.07.65l-.08.35-.36.05c-.6.08-1.07.23-1.39.43-.18.11-.6.51-1.42,1.88l-3.67,9.65c-.35.91-.96,2.32-1.82,4.19-.17.38-.3.68-.39.91-.12.33-.25.54-.4.68-.12.11-.34.25-.68.25Z"/><path class="cls-4" d="M237.48,227.87c-.58,0-1.12-.01-1.63-.04l-.37-.02-.24-.97c0-.2.07-.4.23-.64l.08-.12.13-.06c.43-.21,1.01-.34,1.76-.41.49-.04.65-.09.69-.1.05-.02.15-.07.33-.21.13-.3.15-.48.15-.58s-.01-.3-.04-.59c-.04-.72-.07-2.43-.08-5.23l.04-3.01c0-1.79-.31-3.02-.94-3.66-.63-.64-1.45-.96-2.52-.96-.84,0-1.68.21-2.49.61-.78.39-1.56.98-2.3,1.76-.02.63-.03,1.18-.03,1.64l.06,4.99c0,2.58.03,4.18.1,4.74.02.14.04.21.05.24h0s.13.05.37.11c.35.08.74.19,1.2.33.41.13.69.21.82.24.57.15.81.49.93.75l.05.11-.05,1.06h-2.68l-4.5-.07c-1.03.02-1.69.02-1.97.02h-.97l-.1-.74c0-.22.02-.39.07-.63l.06-.3.29-.09c.37-.11.8-.21,1.27-.29,1.06-.16,1.27-.31,1.29-.33,0,0,.11-.05.11-.88l.04-.84c.01-.29.02-.67.02-1.12l-.04-6.92c0-1.16-.18-1.44-.22-1.48-.19-.21-.66-.52-1.76-.7l-.43-.07v-1.65l.37-.11c.93-.28,1.65-.64,2.13-1.07.74-.64,1.37-1.51,1.87-2.6l.14-.31,1.52.05.03.47c.04.72.06,1.24.06,1.55v.86c.78-.62,1.6-1.13,2.42-1.54.91-.45,1.72-.76,2.43-.94.45-.13.99-.2,1.58-.2,1.25,0,2.35.37,3.26,1.11.9.73,1.49,1.61,1.76,2.61.26.95.38,2.75.38,5.49v3.42c0,.09-.01.4-.03.93-.02.51-.03,1.09-.03,1.75,0,1.37.07,1.76.1,1.87h0s.04.09.24.24c1.83.28,2.31.59,2.53.87l.12.14v.37c0,.22-.05.46-.16.74l-.12.34-3.51-.04-2.68.07c-.4.01-.79.02-1.17.02Z"/><path class="cls-4" d="M254.13,228.4c-1.05,0-2.1-.24-3.13-.7-1.51-.71-2.71-1.86-3.57-3.42-.85-1.54-1.28-3.42-1.28-5.6,0-.7.12-1.6.35-2.67.24-1.08.67-2.24,1.28-3.45.43-.85.97-1.57,1.59-2.12.88-.76,1.63-1.29,2.31-1.6.97-.44,2.1-.66,3.36-.66,1.38,0,2.54.29,3.43.85,1.18.72,2.08,1.68,2.67,2.83.58,1.14.88,2.21.88,3.18v.83l-8.85.07h-1.58c-.51,0-1.03.02-1.55.06-.07.3-.08.41-.08.45l.02.45-.02,1.12c0,.84.26,1.91.76,3.18.49,1.23,1.2,2.18,2.11,2.83.9.64,2.06.98,3.43,1.03.7-.04,1.29-.14,1.7-.29.42-.15,1.05-.51,1.87-1.09l2.17-1.94.26,1.86c0,.19,0,.33-.02.47l-.02.13-.08.11c-.66.9-1.5,1.71-2.5,2.39-.99.67-2.02,1.18-3.05,1.49-.53.15-1.34.23-2.48.23ZM250.48,214.02h.41c.69,0,2.81-.12,6.29-.36.45-.02.65-.06.73-.09.17-.22.18-.33.18-.35,0-.39-.12-.85-.37-1.38-.23-.5-.58-.88-1.07-1.15-.49-.28-1.08-.42-1.75-.42-1.45,0-2.58.58-3.45,1.76-.53.7-.85,1.37-.97,1.98Z"/><path class="cls-4" d="M278.13,228.64h-.51v-1.93c-.12.05-.24.11-.38.17-2.22,1.02-4.3,1.54-6.18,1.54-1.19,0-2.42-.42-3.64-1.25-1.21-.83-2.15-1.99-2.8-3.46-.64-1.45-.96-2.95-.96-4.46,0-1.35.21-2.66.63-3.89.42-1.24.98-2.28,1.67-3.12.44-.55,1.08-1.1,1.88-1.63.82-.54,1.48-.88,2.04-1.03,1.3-.37,2.14-.54,2.61-.54,1.94,0,3.57.32,4.85.96.04.02.09.05.13.07l-.02-2.5.02-5.01c0-1.72-.22-2.21-.32-2.34-.09-.13-.49-.48-2.16-.96l-.83-.25v-.63c0-.17.02-.37.05-.58l.06-.39.39-.04c1.84-.21,3.43-.55,4.75-1.04l.17-.03,1.56-.03.03.5c.06,1.03.08,2.2.08,3.47l-.08,8.71.15,9.81-.06,5.24c0,1.23.1,1.48.11,1.51.03.01.32.24,1.42.26h0c.2,0,.47.02.83.05l.47.04v.88c0,.12,0,.26-.02.4l-.04.36-.35.09c-.44.11-.89.21-1.35.3l-3.01.63c-.48.1-.86.15-1.17.15ZM272.95,211.13c-1.44,0-2.63.6-3.64,1.83-1.02,1.24-1.54,3.13-1.54,5.62,0,2.17.56,3.91,1.67,5.18,1.1,1.27,2.43,1.88,4.08,1.88.96,0,1.84-.14,2.62-.42.76-.27,1.15-.48,1.35-.63.05-1.07.07-3.08.07-5.99,0-3.24-.17-4.45-.32-4.9-.19-.59-.7-1.17-1.51-1.73-.83-.57-1.74-.85-2.77-.85Z"/><path class="cls-4" d="M315.07,228.51c-1.65,0-3.17-.48-4.5-1.42-1.32-.94-2.35-2.27-3.06-3.97-.7-1.67-1.05-3.33-1.05-4.95,0-1.78.43-3.49,1.28-5.07.86-1.6,2.01-2.81,3.43-3.6,1.41-.79,3.19-1.19,5.29-1.19s3.63.4,4.73,1.18c.71.53,1.07,1.22,1.07,2.05,0,.61-.19,1.13-.57,1.55-.39.43-.9.64-1.5.64-.85,0-1.73-.51-2.67-1.58-.47-.52-.89-.89-1.25-1.07-.34-.18-.73-.27-1.15-.27-1.07,0-1.94.47-2.66,1.44-1.06,1.47-1.6,3.35-1.6,5.6s.55,4.17,1.63,5.51c1.07,1.33,2.27,1.98,3.67,1.98,1,0,1.9-.18,2.66-.53.79-.36,1.73-1.05,2.81-2.05l.85-.79.04,2.82-.13.15c-1.12,1.3-2.26,2.23-3.37,2.75-1.12.53-2.45.8-3.94.8Z"/><path class="cls-4" d="M337.59,228.29l-.07-.57c-.07-.56-.11-.91-.11-1.04v-1.38c-1.06.87-2.19,1.62-3.36,2.23-.89.47-1.76.71-2.61.71-1.61,0-2.95-.66-3.96-1.96-1.01-1.28-1.5-3.35-1.5-6.33,0-.15,0-.43.02-.83.06-.73.08-1.22.08-1.5,0-.1,0-.43-.02-.98-.01-.24-.02-.46-.02-.65,0-.14,0-.45.02-.93.01-.47.02-.8.02-.99,0-.24,0-.46-.02-.64l-.04-1.22.02-.67s0-.08-.09-.18c-.97-.28-1.36-.37-1.52-.39-.32-.05-.61-.12-.85-.23l-.31-.13v-1.58h3.25c1.49,0,2.37.02,2.74.05l.45.04.04.88c0,2.13-.03,4.22-.08,6.22-.04,1.17-.06,1.84-.06,2,0,3.24.12,4.43.23,4.86.13.54.43.96.91,1.29.51.34,1.11.51,1.85.51.93,0,1.83-.21,2.68-.64.81-.4,1.52-.89,2.1-1.46.05-.5.08-1.06.08-1.66,0-2.24.02-3.78.06-4.58.01-.45.02-.85.02-1.19,0-3.15-.19-3.75-.25-3.86-.02-.01-.31-.29-2.16-.5-.51-.06-.88-.12-1.11-.17l-.23-.05-.11-.2c-.16-.28-.23-.5-.23-.71l.02-.13.15-.59.35-.04c.38-.05.76-.07,1.12-.07l3.31.04c1.17-.03,1.79-.04,1.86-.04.17,0,.34,0,.49.03l.45.05.05,2.1c-.1,2.3-.15,5.16-.17,8.52l-.04,1.84.08,2.93c.05.08.08.12.09.13,0,0,.19.04.75.04h.19c.13,0,.43.01,1.59.14l.43.05.03.43c.01.21.02.37.02.46v.66l-.4.09c-1.83.43-3.32.87-4.45,1.29-.48.17-.89.3-1.23.38l-.56.13Z"/><path class="cls-4" d="M351.77,228.53c-1.83,0-3.54-.38-5.09-1.11l-.11-.07c-.25-.22-.39-.56-.41-1.05,0-.15-.01-.35-.04-.63-.22-2.07-.33-3.27-.33-3.67,0-.13,0-.51.28-.75.18-.15.43-.22.88-.22h.36l.12.34c.62,1.73.95,2.42,1.12,2.68.48.79,1.07,1.41,1.73,1.84.66.42,1.35.63,2.11.63.65,0,1.32-.32,1.99-.97.45-.45.67-.97.67-1.57,0-.87-.28-1.65-.87-2.4-.59-.74-1.77-1.47-3.5-2.18-1.93-.79-3.2-1.63-3.89-2.56-.69-.93-1.04-2.01-1.04-3.2,0-1.12.29-2.13.85-3,.57-.86,1.35-1.53,2.34-1.96.96-.43,1.87-.64,2.7-.64,1.01,0,1.94.09,2.76.26.83.18,1.57.46,2.19.83l.21.13.04.24c.11.79.2,1.91.27,3.44l.07,1.22-.5.04c-.2.02-.36.02-.5.02h-.66l-.12-.35c-.38-1.16-.97-2.08-1.75-2.75-1.49-1.28-2.99-1.21-3.83-.31-.43.46-.63,1.05-.63,1.81,0,.57.17,1.05.51,1.49.25.32.92.86,2.72,1.65,1.59.7,2.73,1.35,3.47,1.96.76.63,1.34,1.42,1.7,2.32.36.89.54,1.75.54,2.57,0,1.14-.35,2.23-1.04,3.22-.69.99-1.56,1.69-2.61,2.1-1.01.39-1.93.59-2.73.59Z"/><path class="cls-4" d="M366.93,228.28c-1.01,0-1.87-.26-2.55-.78-.68-.52-1.12-1.15-1.32-1.88-.18-.67-.27-2.03-.27-4.18l.08-5.1-.02-3.34c0-.26,0-.51-.02-.77l-1.66.08h-.02c-.42,0-.64-.14-.76-.26-.17-.17-.27-.39-.27-.64,0-.31.1-.58.29-.79.12-.13.33-.3,1.11-.65.3-.14.68-.42,1.12-.84.44-.43.83-.91,1.13-1.42.14-.26.37-.81.67-1.63.23-.63.4-1.08.51-1.34l.14-.32,1.47.05.1,2.63-.03,2.31c.36,0,1.03-.03,2-.09.66-.05,1.3-.07,1.9-.07.28,0,.7,0,1.26.02h.46s.04.47.04.47c.03.32.04.58.04.77,0,.23-.04.57-.13,1.03l-.08.42h-.78l-4.78.16c-.05.25-.07.54-.07.84l.06,3.38-.04,5.99c0,1.9.29,2.58.46,2.81.27.4.65.58,1.21.58.22,0,.73-.06,1.92-.35.13-.03.43-.16,1.02-.64l.14-.12h.37c.27,0,.51.1.68.29.16.18.25.41.25.68l-.05.38-.1.12c-.65.77-1.4,1.34-2.24,1.69-.83.35-1.93.53-3.27.53Z"/><path class="cls-4" d="M382.44,228.42c-1.81,0-3.54-.52-5.14-1.55-1.2-.78-2.25-1.95-3.1-3.46-.86-1.52-1.29-3.27-1.29-5.21,0-1.08.21-2.24.62-3.46.42-1.23,1.05-2.34,1.9-3.32.85-.98,1.76-1.71,2.72-2.19,1.33-.67,2.96-1,4.85-1,2.73,0,5.05,1.03,6.88,3.07,1.82,2.02,2.74,4.48,2.74,7.31,0,2.54-.97,4.83-2.88,6.82-1.92,1.99-4.37,3-7.28,3ZM382.82,210.14c-.83,0-1.7.22-2.57.65-.84.42-1.58,1.24-2.18,2.46-.62,1.25-.94,3.08-.94,5.43,0,2.61.54,4.6,1.6,5.91,1.05,1.3,2.32,1.93,3.88,1.93.95,0,1.89-.29,2.78-.85.89-.56,1.61-1.48,2.14-2.74.55-1.3.83-2.82.83-4.54,0-1.12-.22-2.45-.66-3.95-.42-1.45-1.06-2.54-1.92-3.24-.85-.7-1.82-1.05-2.97-1.05Z"/><path class="cls-4" d="M425.96,227.88h-.5l-2.13-.14c-.54-.03-1.78-.04-3.9.07h-1.08c-.15,0-.44,0-.87.02l-.48.02-.05-.48c-.01-.15-.02-.29-.02-.41,0-.21.07-.44.21-.69l.08-.15.15-.07c.42-.2.97-.36,1.68-.48.7-.12.83-.31.85-.35.04-.09.18-.61.18-3.28,0-4.41-.05-7-.14-7.68-.15-1.01-.53-1.78-1.16-2.35-.62-.56-1.39-.83-2.35-.83-.74,0-1.47.22-2.17.64-.7.42-1.4,1.05-2.09,1.89v.37s-.01,3.44-.01,3.44l-.08,2.71c0,3.36.04,4.36.07,4.6.03.25.1.43.19.52.02.01.24.16,1.36.33.43.06.76.13.99.19l.12.03.09.08c.27.25.42.58.42.97,0,.51-.27.75-.44.85l-.12.07h-9.7s-.06-.45-.06-.45c-.03-.25-.05-.44-.05-.56l.04-.58.23-.14c.36-.21.96-.4,1.87-.58.36-.06.73-.16,1.11-.31.05-.14.11-.49.14-1.69l.1-2.63-.04-2.94.02-1.67c0-1.72-.31-2.98-.92-3.73-.59-.73-1.32-1.09-2.21-1.09s-1.8.25-2.71.73c-.87.46-1.6,1.09-2.19,1.85-.01.35-.02.68-.02.98l.08,7.6c.02,2.12.15,2.52.18,2.57h0s.12.15.72.25c.99.15,1.61.34,1.95.59.25.18.39.48.39.82,0,.13,0,.29-.02.47l-.04.51-.51-.04c-1.6-.12-2.63-.18-3.15-.18-.55,0-1.04,0-1.48.02l-1.71.07-2.72.11-.11-.4c-.04-.15-.06-.28-.06-.4,0-.1.02-.23.1-.56l.04-.18.15-.11c.29-.22.67-.36,1.14-.44.46-.06.82-.15,1.06-.28.14-.15.24-.37.3-.65.06-.34.14-1.61.14-5.62,0-2.93-.08-4.91-.22-5.91-.23-.13-.51-.23-.84-.31-.13-.03-.47-.11-.97-.25l-.38-.1v-1.53l.36-.11c.76-.24,1.37-.54,1.83-.91.47-.38,1.15-1.17,2.03-2.36l.15-.21h.39c.07,0,.19,0,.35-.02h.06s.06,0,.06,0c.21.03.39.11.54.23l.18.16-.02,2.82c0,.17,0,.35,0,.53,1.19-1.08,2.29-1.88,3.28-2.37.87-.43,1.86-.64,2.95-.64,1.31,0,2.37.28,3.16.84.66.46,1.26,1.2,1.84,2.24,1.08-1.09,2.08-1.89,2.99-2.36,1.08-.57,2.18-.85,3.29-.85,1.7,0,3.11.61,4.21,1.82,1.07,1.21,1.62,2.98,1.65,5.25v9.25c-.01.43.05.75.18.97.19.06.56.18,1.1.35.66.2.88.31,1.01.43.13.12.29.34.29.7,0,.23-.05.48-.16.77l-.12.34Z"/><path class="cls-4" d="M442.92,215.35l-8.34.07h-1.58c-.64,0-1.29.03-1.95.09-.12.45-.19.76-.19.93l.02.23v.23l-.02,1.11c0,.92.27,2.05.8,3.38.53,1.34,1.3,2.35,2.29,3.05.99.7,2.23,1.07,3.71,1.12.79-.05,1.42-.15,1.89-.32.47-.16,1.14-.55,2-1.15l1.5-1.33.12.9c0,.11,0,.22-.02.34-.62.86-1.41,1.61-2.37,2.26-.96.65-1.93,1.12-2.91,1.42-.47.14-1.25.2-2.33.2-.98,0-1.95-.22-2.91-.66-1.41-.66-2.53-1.73-3.34-3.2-.81-1.47-1.22-3.25-1.22-5.35,0-.66.11-1.52.34-2.56s.64-2.15,1.24-3.33c.4-.8.89-1.46,1.48-1.97.83-.72,1.56-1.23,2.18-1.52.9-.41,1.95-.61,3.14-.61,1.29,0,2.34.26,3.16.77,1.11.68,1.94,1.55,2.48,2.62.55,1.07.82,2.05.82,2.94v.32ZM439.63,213.99c.25-.29.37-.54.37-.77,0-.47-.14-1-.42-1.59-.28-.6-.7-1.06-1.28-1.38-.58-.32-1.24-.49-2.01-.49-1.61,0-2.9.66-3.87,1.97-.75,1-1.12,1.93-1.12,2.81h.98"/><path class="cls-4" d="M435.54,228.4c-1.05,0-2.1-.24-3.13-.7-1.51-.71-2.71-1.86-3.57-3.42-.85-1.54-1.28-3.42-1.28-5.6,0-.7.12-1.59.35-2.67.24-1.08.67-2.24,1.28-3.45.43-.85.97-1.57,1.6-2.12.88-.77,1.63-1.29,2.31-1.6.97-.44,2.1-.66,3.35-.66,1.38,0,2.54.29,3.43.85,1.18.72,2.08,1.67,2.67,2.83.58,1.14.88,2.21.88,3.18v.83l-8.85.07h-1.59c-.51,0-1.02.02-1.55.06-.07.3-.08.41-.08.45l.02.45-.02,1.12c0,.84.26,1.92.76,3.18.49,1.23,1.2,2.18,2.11,2.83.9.64,2.06.98,3.43,1.03.7-.04,1.29-.14,1.7-.29.42-.15,1.05-.51,1.87-1.09l2.17-1.94.26,1.86c0,.19,0,.33-.02.47l-.02.13-.08.11c-.65.9-1.5,1.71-2.5,2.39-.99.67-2.02,1.18-3.05,1.49-.53.15-1.34.23-2.48.23ZM431.88,214.02h.41c.69,0,2.81-.12,6.29-.36.45-.02.65-.06.73-.09.17-.22.18-.33.18-.35,0-.39-.12-.85-.37-1.38-.23-.5-.58-.88-1.06-1.15-.5-.28-1.09-.42-1.75-.42-1.45,0-2.58.58-3.45,1.76-.53.7-.85,1.37-.97,1.98Z"/><path class="cls-4" d="M444.65,227.88l-.21-.82c0-.21.08-.43.26-.74l.11-.19,3.05-.63c.07-.12.13-.44.13-1.58,0-5.08-.03-8.05-.08-8.83-.07-.99-.23-1.18-.24-1.19,0,0-.19-.19-1.19-.34-.53-.08-.93-.19-1.25-.33l-.35-.15.16-1.36.27-.12c1.4-.62,2.34-1.16,2.79-1.58.63-.62,1.19-1.47,1.65-2.51l.14-.32,1.5.05.05.44c.07.67.12,2.03.13,4.06.33-.48.7-.95,1.1-1.39l.48-.52c.2-.25.42-.47.63-.63,1.11-.72,1.89-1.05,2.47-1.05.76,0,1.4.28,1.89.84.47.54.71,1.21.71,1.98,0,.65-.19,1.17-.56,1.56-.48.48-1.03.72-1.66.72-.2,0-.55-.05-1.5-.42-.86-.34-1.08-.35-1.1-.35-.37,0-.47.07-.47.07-.24.21-.65.69-1.3,1.9-.39.69-.58,1.33-.58,1.88l.1,3.73.04,4.5c.05.56.1.74.12.78h0s.04.04.14.11c2.15.2,2.48.27,2.59.29.14,0,.3.02.4.04.65.01,1.15.13,1.47.36.25.15.41.43.41.76,0,.21-.08.42-.27.67l-.16.22-3.45-.07-8.4.17Z"/><path class="cls-4" d="M471.07,227.83h-.5l-.05-1.63.42-.09c.19-.04.32-.07.41-.1,1.49-.3,1.97-.58,2.13-.71,0,0,.07-.07.12-.36,0-.07.03-.45.03-2.45,0-4.05-.03-7.37-.09-9.89-.26-.05-.63-.09-1.18-.11h0c-.28,0-.72-.03-1.34-.09l-.39-.04-.1-.64c0-.41.12-.71.38-.93.05-.05.11-.12,1.85-1.02.34-.17.58-.36.7-.59,0,0,.08-.16.1-.8.02-.26.06-.69.13-1.29.17-1.59.3-2.56.41-2.95.26-1.05.7-2.11,1.31-3.15.61-1.05,1.36-1.98,2.23-2.76.66-.59,1.42-1.04,2.24-1.33.82-.29,1.76-.44,2.8-.44,1.45,0,2.49.26,3.2.8.54.41.83.97.83,1.62,0,.56-.2,1.04-.58,1.44-.81.83-2.06.75-3.38.13-1.52-.65-1.82-.77-1.88-.79-.81-.23-1.69-.03-2.42.58-.55.46-.88,1-1.02,1.67-.16.73-.24,2.44-.24,5.09,0,.77,0,1.49.01,2.16,2.41.06,4.77.12,5,.12h.47l.04.47c.03.35.04.61.04.79,0,.21-.02.52-.07.94l-.04.39-.38.07c-.38.07-.76.1-1.15.1h-.79c-1.38,0-2.42.04-3.09.13,0,.14-.01.26-.01.35,0,.06,0,.16.02.29.07,2.41.11,3.85.11,4.35l-.04,5.82c0,.78.12,1.43.35,1.93.1.22.3.4.6.54.11.06.47.19,1.76.36.78.12,1.29.21,1.56.25l.43.07v.43c0,.36-.03.64-.08.85l-.09.36-.66.05c-.73-.04-1.59-.08-2.65-.11l-1.55-.07-5.9.18Z"/><path class="cls-4" d="M493.32,228.42c-1.81,0-3.54-.52-5.14-1.55-1.2-.78-2.25-1.95-3.1-3.46-.86-1.52-1.29-3.27-1.29-5.21,0-1.08.21-2.24.62-3.46.42-1.23,1.05-2.34,1.9-3.32.85-.98,1.76-1.71,2.72-2.19,1.33-.67,2.96-1,4.85-1,2.73,0,5.05,1.03,6.88,3.07,1.82,2.02,2.74,4.48,2.74,7.31,0,2.54-.97,4.83-2.88,6.82-1.92,1.99-4.37,3-7.28,3ZM493.7,210.14c-.83,0-1.7.22-2.57.65-.84.42-1.58,1.24-2.18,2.46-.62,1.25-.94,3.08-.94,5.43,0,2.61.54,4.6,1.6,5.91,1.05,1.3,2.32,1.93,3.88,1.93.95,0,1.89-.29,2.78-.85.89-.56,1.61-1.48,2.14-2.74.55-1.3.83-2.82.83-4.54,0-1.12-.22-2.45-.66-3.95-.42-1.45-1.06-2.54-1.92-3.24-.85-.7-1.82-1.05-2.97-1.05Z"/><path class="cls-4" d="M514.21,228.51c-1.65,0-3.17-.48-4.5-1.42-1.32-.94-2.35-2.27-3.06-3.97-.69-1.67-1.05-3.33-1.05-4.95,0-1.78.43-3.49,1.28-5.07.85-1.6,2.01-2.81,3.43-3.6,1.41-.79,3.19-1.19,5.29-1.19s3.63.4,4.73,1.18c.71.53,1.07,1.22,1.07,2.05,0,.61-.19,1.13-.57,1.55-.39.43-.9.64-1.5.64-.85,0-1.73-.51-2.67-1.58-.47-.52-.89-.89-1.25-1.07-.34-.18-.73-.27-1.15-.27-1.07,0-1.94.47-2.66,1.44-1.06,1.47-1.6,3.35-1.6,5.6s.55,4.17,1.63,5.51c1.07,1.33,2.27,1.98,3.67,1.98,1,0,1.9-.18,2.66-.53.79-.36,1.73-1.05,2.81-2.05l.85-.79.04,2.82-.13.15c-1.12,1.3-2.26,2.23-3.37,2.75-1.12.53-2.45.8-3.94.8Z"/><path class="cls-4" d="M536.73,228.29l-.07-.57c-.07-.56-.11-.91-.11-1.04v-1.38c-1.06.87-2.19,1.62-3.36,2.23-.89.47-1.76.71-2.61.71-1.61,0-2.95-.66-3.96-1.96-1.01-1.28-1.5-3.35-1.5-6.33,0-.15,0-.43.02-.83.06-.73.08-1.22.08-1.5,0-.1,0-.43-.02-.98-.01-.24-.02-.46-.02-.65,0-.14,0-.45.02-.93.01-.47.02-.8.02-.99,0-.24,0-.46-.02-.64l-.04-1.22.02-.67s0-.08-.09-.18c-.97-.28-1.36-.37-1.52-.39-.32-.05-.61-.12-.85-.23l-.31-.13v-1.58h3.25c1.48,0,2.37.02,2.74.05l.45.04.04.88c0,2.13-.03,4.22-.08,6.22-.04,1.17-.06,1.84-.06,2,0,3.24.12,4.43.23,4.86.13.54.43.96.91,1.29.51.34,1.11.51,1.85.51.93,0,1.83-.21,2.68-.64.81-.4,1.52-.89,2.1-1.46.05-.5.08-1.06.08-1.66,0-2.24.02-3.78.06-4.58.01-.45.02-.85.02-1.19,0-3.15-.19-3.75-.25-3.86-.02-.01-.31-.29-2.16-.5-.51-.06-.88-.12-1.11-.17l-.23-.05-.11-.2c-.16-.28-.23-.5-.23-.71l.02-.13.15-.59.35-.04c.38-.05.76-.07,1.12-.07l3.31.04c1.17-.03,1.79-.04,1.86-.04.17,0,.34,0,.49.03l.45.05.05,2.1c-.1,2.3-.15,5.16-.17,8.52l-.04,1.84.08,2.93c.05.08.08.12.09.13,0,0,.19.04.75.04h.19c.13,0,.43.01,1.59.14l.43.05.03.43c.01.21.02.37.02.46v.66l-.4.09c-1.83.43-3.32.87-4.45,1.29-.48.17-.89.3-1.23.38l-.56.13Z"/><path class="cls-4" d="M550.91,228.53c-1.83,0-3.54-.38-5.09-1.11l-.11-.07c-.25-.22-.39-.56-.41-1.05,0-.15-.01-.35-.04-.63-.22-2.07-.33-3.27-.33-3.67,0-.13,0-.51.28-.75.18-.15.43-.22.88-.22h.36l.12.34c.62,1.73.95,2.42,1.12,2.68.48.79,1.07,1.41,1.73,1.84.66.42,1.35.63,2.11.63.65,0,1.32-.32,1.99-.97.45-.45.67-.97.67-1.57,0-.87-.28-1.65-.87-2.4-.59-.74-1.77-1.47-3.5-2.18-1.93-.79-3.2-1.63-3.89-2.56-.69-.93-1.04-2.01-1.04-3.2,0-1.12.29-2.13.85-3,.57-.86,1.35-1.53,2.34-1.96.96-.43,1.87-.64,2.7-.64,1.01,0,1.94.09,2.76.26.83.18,1.57.46,2.19.83l.21.13.04.24c.11.79.2,1.91.27,3.44l.07,1.22-.5.04c-.2.02-.36.02-.5.02h-.66l-.12-.35c-.38-1.16-.97-2.08-1.75-2.75-1.49-1.28-2.99-1.21-3.83-.31-.43.46-.63,1.05-.63,1.81,0,.57.17,1.05.51,1.49.25.32.92.86,2.72,1.65,1.59.7,2.73,1.35,3.47,1.96.76.63,1.34,1.42,1.7,2.32.36.89.54,1.75.54,2.57,0,1.14-.35,2.23-1.04,3.22-.69.99-1.56,1.69-2.61,2.1-1.01.39-1.93.59-2.73.59Z"/><path class="cls-4" d="M567.71,228.4c-1.05,0-2.1-.24-3.13-.7-1.51-.71-2.71-1.86-3.57-3.42-.85-1.54-1.28-3.42-1.28-5.6,0-.7.12-1.59.35-2.67.24-1.08.67-2.24,1.28-3.45.43-.85.97-1.57,1.6-2.12.88-.77,1.63-1.29,2.31-1.6.97-.44,2.1-.66,3.35-.66,1.38,0,2.54.29,3.43.85,1.18.72,2.08,1.67,2.67,2.83.58,1.14.88,2.21.88,3.18v.83l-8.85.07h-1.59c-.51,0-1.02.02-1.55.06-.07.3-.08.41-.08.45l.02.45-.02,1.12c0,.84.26,1.92.76,3.18.49,1.23,1.2,2.18,2.11,2.83.9.64,2.06.98,3.43,1.03.7-.04,1.29-.14,1.7-.29.42-.15,1.05-.51,1.87-1.09l2.17-1.94.26,1.86c0,.19,0,.33-.02.47l-.02.13-.08.11c-.65.9-1.5,1.71-2.5,2.39-.99.67-2.02,1.18-3.05,1.49-.53.15-1.34.23-2.48.23ZM564.05,214.02h.41c.69,0,2.81-.12,6.29-.36.45-.02.65-.06.73-.09.17-.22.18-.33.18-.35,0-.39-.12-.85-.37-1.38-.23-.5-.58-.88-1.06-1.15-.5-.28-1.09-.42-1.75-.42-1.45,0-2.58.58-3.45,1.76-.53.7-.85,1.37-.97,1.98Z"/><path class="cls-4" d="M591.7,228.64h-.51v-1.93c-.11.05-.24.11-.38.17-2.22,1.02-4.3,1.54-6.18,1.54-1.19,0-2.42-.42-3.64-1.25-1.21-.83-2.15-1.99-2.8-3.46-.64-1.45-.96-2.95-.96-4.46,0-1.35.21-2.66.63-3.89.42-1.24.98-2.29,1.67-3.12.44-.55,1.08-1.1,1.88-1.63.82-.54,1.49-.88,2.04-1.03,1.31-.37,2.14-.54,2.61-.54,1.94,0,3.57.32,4.85.96.04.02.09.05.13.07l-.02-2.5.02-5.01c0-1.72-.22-2.21-.32-2.34-.09-.13-.49-.48-2.16-.96l-.82-.25v-.63c0-.17.01-.37.04-.58l.06-.39.39-.04c1.84-.21,3.43-.55,4.75-1.04l.17-.03,1.56-.03.03.5c.06,1.04.08,2.2.08,3.47l-.08,8.71.15,9.81-.06,5.24c0,1.23.1,1.49.11,1.51.03.01.32.24,1.42.25h0c.2,0,.48.02.83.05l.47.04v.88c0,.12,0,.26-.02.4l-.04.35-.35.09c-.44.11-.89.21-1.35.3l-3.01.63c-.48.1-.86.15-1.17.15ZM586.52,211.13c-1.44,0-2.63.6-3.64,1.83-1.02,1.24-1.54,3.13-1.54,5.62,0,2.17.56,3.91,1.66,5.18,1.1,1.27,2.44,1.88,4.08,1.88.96,0,1.84-.14,2.62-.42.76-.27,1.15-.48,1.35-.63.05-1.08.07-3.09.07-5.99,0-3.24-.17-4.45-.32-4.9-.19-.59-.7-1.17-1.51-1.73-.83-.57-1.74-.85-2.77-.85Z"/><path class="cls-5" d="M294.35,225.32c0,1.66-1.34,3-3,3s-3-1.34-3-3,1.34-2.99,3-2.99,3,1.34,3,2.99Z"/><path class="cls-5" d="M607.23,225.32c0,1.66-1.34,3-3,3s-3-1.34-3-3,1.34-2.99,3-2.99,3,1.34,3,2.99Z"/></svg>